<svg xmlns="http://www.w3.org/2000/svg"  viewBox="0 0 100 100" width="100px" height="100px"><path fill="#c7ede6" d="M87.215,56.71C88.35,54.555,89,52.105,89,49.5c0-6.621-4.159-12.257-10.001-14.478 C78.999,35.015,79,35.008,79,35c0-11.598-9.402-21-21-21c-9.784,0-17.981,6.701-20.313,15.757C36.211,29.272,34.638,29,33,29 c-7.692,0-14.023,5.793-14.89,13.252C12.906,43.353,9,47.969,9,53.5C9,59.851,14.149,65,20.5,65c0.177,0,0.352-0.012,0.526-0.022 C21.022,65.153,21,65.324,21,65.5C21,76.822,30.178,86,41.5,86c6.437,0,12.175-2.972,15.934-7.614C59.612,80.611,62.64,82,66,82 c4.65,0,8.674-2.65,10.666-6.518C77.718,75.817,78.837,76,80,76c6.075,0,11-4.925,11-11C91,61.689,89.53,58.727,87.215,56.71z"/><path fill="#fdfcef" d="M32.75,37.5c0,0,3.64,0,6.125,0s4.5-2.015,4.5-4.5c0-2.333-1.782-4.229-4.055-4.455 c0.022-0.181,0.055-0.358,0.055-0.545c0-2.485-2.015-4.5-4.5-4.5c-1.438,0-2.703,0.686-3.527,1.736 c-0.14-2.636-2.302-4.736-4.973-4.736c-2.761,0-5,2.239-5,5c0,0.446,0.077,0.87,0.187,1.282c-0.642-0.777-1.6-1.282-2.687-1.282 c-1.781,0-3.234,1.335-3.455,3.055c-0.181-0.022-0.358-0.055-0.545-0.055c-2.485,0-4.5,2.015-4.5,4.5s2.015,4.5,4.5,4.5 s9.5,0,9.5,0h5.375V38h3V37.5z"/><path fill="#472b29" d="M26.375,20c-3.033,0-5.5,2.467-5.5,5.5c0,0.016,0,0.031,0,0.047c-0.602-0.354-1.29-0.547-2-0.547 c-1.831,0-3.411,1.261-3.858,3.005C14.97,28.002,14.923,28,14.875,28c-2.757,0-5,2.243-5,5s2.243,5,5,5H29.75 c0.276,0,0.5-0.224,0.5-0.5s-0.224-0.5-0.5-0.5H14.875c-2.206,0-4-1.794-4-4s1.794-4,4-4c0.117,0,0.23,0.017,0.343,0.032 l0.141,0.019c0.021,0.003,0.041,0.004,0.062,0.004c0.246,0,0.462-0.185,0.495-0.437C16.107,27.125,17.379,26,18.875,26 c0.885,0,1.723,0.401,2.301,1.1c0.098,0.118,0.241,0.182,0.386,0.182c0.078,0,0.156-0.018,0.228-0.056 c0.209-0.107,0.314-0.346,0.254-0.573c-0.116-0.436-0.17-0.802-0.17-1.153c0-2.481,2.019-4.5,4.5-4.5 c2.381,0,4.347,1.872,4.474,4.263c0.011,0.208,0.15,0.387,0.349,0.45c0.05,0.016,0.101,0.024,0.152,0.024 c0.15,0,0.296-0.069,0.392-0.192C32.513,24.563,33.654,24,34.875,24c2.206,0,4,1.794,4,4c0,0.117-0.017,0.23-0.032,0.343 l-0.019,0.141c-0.016,0.134,0.022,0.268,0.106,0.373c0.084,0.105,0.207,0.172,0.34,0.185c2.055,0.205,3.604,1.906,3.604,3.958 c0,2.206-1.794,4-4,4H32.75c-0.276,0-0.5,0.224-0.5,0.5s0.224,0.5,0.5,0.5h6.125c2.757,0,5-2.243,5-5 c0-2.397-1.689-4.413-4.003-4.877c0.002-0.041,0.003-0.082,0.003-0.123c0-2.757-2.243-5-5-5c-1.176,0-2.293,0.416-3.183,1.164 C31.094,21.76,28.93,20,26.375,20L26.375,20z"/><path fill="#472b29" d="M24.875,27c-1.403,0-2.609,0.999-2.913,2.341C21.595,29.119,21.176,29,20.75,29 c-1.202,0-2.198,0.897-2.353,2.068C18.194,31.022,18.001,31,17.812,31c-1.529,0-2.811,1.2-2.918,2.732 C14.885,33.87,14.989,33.99,15.126,34c0.006,0,0.012,0,0.018,0c0.13,0,0.24-0.101,0.249-0.232 c0.089-1.271,1.151-2.268,2.419-2.268c0.229,0,0.47,0.042,0.738,0.127c0.022,0.007,0.045,0.01,0.067,0.01 c0.055,0,0.11-0.02,0.156-0.054c0.064-0.047,0.102-0.129,0.102-0.209c0-1.034,0.841-1.875,1.875-1.875 c0.447,0,0.885,0.168,1.231,0.473c0.047,0.041,0.106,0.063,0.165,0.063c0.032,0,0.063-0.006,0.093-0.019 c0.088-0.035,0.148-0.117,0.155-0.212c0.102-1.292,1.191-2.305,2.479-2.305c0.208,0,0.425,0.034,0.682,0.107 c0.023,0.007,0.047,0.01,0.07,0.01c0.109,0,0.207-0.073,0.239-0.182c0.038-0.133-0.039-0.271-0.172-0.309 C25.392,27.04,25.131,27,24.875,27L24.875,27z"/><path fill="#472b29" d="M38.758,28.5c-1.326,0-2.508,0.897-2.874,2.182c-0.038,0.133,0.039,0.271,0.172,0.309 C36.08,30.997,36.103,31,36.125,31c0.109,0,0.209-0.072,0.24-0.182C36.67,29.748,37.654,29,38.758,29 c0.117,0,0.23,0.014,0.342,0.029c0.012,0.002,0.023,0.003,0.035,0.003c0.121,0,0.229-0.092,0.246-0.217 c0.019-0.137-0.077-0.263-0.214-0.281C39.033,28.516,38.897,28.5,38.758,28.5L38.758,28.5z"/><path fill="#78a0cf" d="M75.864,71.298H27.136c-1.732,0-3.136-1.404-3.136-3.136V37.838c0-1.732,1.404-3.136,3.136-3.136 h48.728c1.732,0,2.636,1.316,2.636,3.048v30.325C78.5,69.807,77.596,71.298,75.864,71.298z"/><polygon fill="#fff" points="78,67.2 65.25,57 78,57 78,49 65.25,49 78,38.8 78,35 70.25,35 56,46.4 56,35 47,35 47,46.421 32.748,35 24,35 24,38 37.75,49 24,49 24,57 37.75,57 24,68 24,71 32.75,71 47,59.6 47,71 56,71 56,59.688 70.241,71 78,71"/><path fill="#472b29" d="M78,71.125h-7.759c-0.028,0-0.056-0.01-0.078-0.027L56.125,59.947V71 c0,0.069-0.056,0.125-0.125,0.125h-9c-0.069,0-0.125-0.056-0.125-0.125V59.86L32.828,71.098c-0.022,0.018-0.05,0.027-0.078,0.027 H24c-0.069,0-0.125-0.056-0.125-0.125v-3c0-0.038,0.017-0.074,0.047-0.098l13.472-10.777H24c-0.069,0-0.125-0.056-0.125-0.125v-8 c0-0.069,0.056-0.125,0.125-0.125h13.394L23.922,38.098c-0.03-0.024-0.047-0.06-0.047-0.098v-3c0-0.069,0.056-0.125,0.125-0.125 h8.748c0.028,0,0.056,0.01,0.078,0.027l14.049,11.259V35c0-0.069,0.056-0.125,0.125-0.125h9c0.069,0,0.125,0.056,0.125,0.125v11.14 l14.047-11.237c0.022-0.018,0.05-0.027,0.078-0.027H78c0.069,0,0.125,0.056,0.125,0.125v3.8c0,0.038-0.018,0.074-0.047,0.098 l-12.472,9.978H78c0.069,0,0.125,0.056,0.125,0.125v8c0,0.069-0.056,0.125-0.125,0.125H65.606l12.472,9.978 c0.029,0.024,0.047,0.06,0.047,0.098V71C78.125,71.069,78.069,71.125,78,71.125z M70.285,70.875h7.59V67.26L65.172,57.098 c-0.041-0.033-0.058-0.089-0.04-0.139s0.065-0.084,0.118-0.084h12.625v-7.75H65.25c-0.053,0-0.101-0.034-0.118-0.084 s-0.001-0.106,0.04-0.139L77.875,38.74v-3.615h-7.581L56.078,46.497c-0.037,0.03-0.09,0.036-0.132,0.015 c-0.044-0.021-0.071-0.065-0.071-0.113V35.125h-8.75v11.296c0,0.048-0.027,0.092-0.071,0.113c-0.043,0.021-0.096,0.015-0.132-0.015 L32.704,35.125h-8.579v2.815l13.703,10.962c0.042,0.033,0.058,0.089,0.04,0.139s-0.065,0.084-0.118,0.084H24.125v7.75H37.75 c0.053,0,0.101,0.034,0.118,0.084s0.001,0.106-0.04,0.139L24.125,68.06v2.815h8.581l14.216-11.372 c0.038-0.03,0.09-0.036,0.132-0.015c0.043,0.021,0.071,0.065,0.071,0.113v11.275h8.75V59.688c0-0.048,0.027-0.092,0.07-0.113 c0.043-0.021,0.095-0.015,0.133,0.015L70.285,70.875z"/><polygon fill="#ee3e54" points="25.97,71 31,71 47,58.2 47,57 43.498,57"/><path fill="#472b29" d="M31.044,71.125h-5.43l17.84-14.25h3.671v1.385L31.044,71.125z M26.328,70.875h4.628L46.875,58.14 v-1.015h-3.333L26.328,70.875z"/><path fill="#ee3e54" d="M44,49L26.5,35h-1.25C24.56,35,24,35.56,24,36.25V37l15,12H44z"/><path fill="#472b29" d="M44.356,49.125h-5.4l-0.034-0.027L23.875,37.06v-0.81c0-0.758,0.617-1.375,1.375-1.375h1.294 l0.034,0.027L44.356,49.125z M39.044,48.875h4.6l-17.188-13.75H25.25c-0.62,0-1.125,0.505-1.125,1.125v0.69L39.044,48.875z"/><polygon fill="#ee3e54" points="77.03,35 72,35 56,47.8 56,49 59.502,49"/><path fill="#472b29" d="M59.546,49.125h-3.671V47.74l16.081-12.865h5.43l-0.278,0.223L59.546,49.125z M56.125,48.875h3.333 l17.215-13.75h-4.629L56.125,47.86V48.875z"/><polygon fill="#ee3e54" points="78,50.5 54,50.5 54,35 49,35 49,50.5 24,50.5 24,55.5 49,55.5 49,71 54,71 54,55.5 78,55.5"/><path fill="#472b29" d="M54.125,71.125h-5.25v-15.5h-25v-5.25h25v-15.5h5.25v15.5h24v5.25h-24V71.125z M49.125,70.875h4.75 v-15.5h24v-4.75h-24v-15.5h-4.75v15.5h-25v4.75h25V70.875z"/><path fill="#ee3e54" d="M78,68.6L63.5,57h-5L76,71h0.292C77.235,71,78,70.235,78,69.292V68.6z"/><path fill="#472b29" d="M76.292,71.125h-0.336l-0.034-0.027L58.144,56.875h5.4l0.034,0.027L78.125,68.54v0.752 C78.125,70.303,77.303,71.125,76.292,71.125z M76.044,70.875h0.248c0.873,0,1.583-0.71,1.583-1.583V68.66L63.456,57.125h-4.6 L76.044,70.875z"/><path fill="#fff" d="M35.405,80H25.5c-0.276,0-0.5-0.224-0.5-0.5s0.224-0.5,0.5-0.5h9.905c0.276,0,0.5,0.224,0.5,0.5 S35.682,80,35.405,80z"/><path fill="#fff" d="M38.5,80h-1c-0.276,0-0.5-0.224-0.5-0.5s0.224-0.5,0.5-0.5h1c0.276,0,0.5,0.224,0.5,0.5 S38.777,80,38.5,80z"/><path fill="#fff" d="M43.491,82H34.5c-0.276,0-0.5-0.224-0.5-0.5s0.224-0.5,0.5-0.5h8.991c0.276,0,0.5,0.224,0.5,0.5 S43.767,82,43.491,82z"/><path fill="#fff" d="M32.5,82h-1c-0.276,0-0.5-0.224-0.5-0.5s0.224-0.5,0.5-0.5h1c0.276,0,0.5,0.224,0.5,0.5 S32.777,82,32.5,82z"/><path fill="#fff" d="M29.5,82h-2c-0.276,0-0.5-0.224-0.5-0.5s0.224-0.5,0.5-0.5h2c0.276,0,0.5,0.224,0.5,0.5 S29.777,82,29.5,82z"/><path fill="#fff" d="M35.5,84h-2c-0.276,0-0.5-0.224-0.5-0.5s0.224-0.5,0.5-0.5h2c0.276,0,0.5,0.224,0.5,0.5 S35.776,84,35.5,84z"/><path fill="#fff" d="M38.5,75c-0.177,0-0.823,0-1,0c-0.276,0-0.5,0.224-0.5,0.5c0,0.276,0.224,0.5,0.5,0.5 c0.177,0,0.823,0,1,0c0.276,0,0.5-0.224,0.5-0.5C39,75.224,38.776,75,38.5,75z"/><path fill="#fff" d="M38.5,77c-0.177,0-4.823,0-5,0c-0.276,0-0.5,0.224-0.5,0.5c0,0.276,0.224,0.5,0.5,0.5 c0.177,0,4.823,0,5,0c0.276,0,0.5-0.224,0.5-0.5C39,77.224,38.776,77,38.5,77z"/><path fill="#fff" d="M43.5,79c-0.177,0-2.823,0-3,0c-0.276,0-0.5,0.224-0.5,0.5c0,0.276,0.224,0.5,0.5,0.5 c0.177,0,2.823,0,3,0c0.276,0,0.5-0.224,0.5-0.5C44,79.224,43.776,79,43.5,79z"/><g><path fill="#fff" d="M71.5,25h-10c-0.276,0-0.5-0.224-0.5-0.5s0.224-0.5,0.5-0.5h10c0.276,0,0.5,0.224,0.5,0.5 S71.776,25,71.5,25z"/><path fill="#fff" d="M75.5,25h-2c-0.276,0-0.5-0.224-0.5-0.5s0.224-0.5,0.5-0.5h2c0.276,0,0.5,0.224,0.5,0.5 S75.776,25,75.5,25z"/><path fill="#fff" d="M80.5,27h-10c-0.276,0-0.5-0.224-0.5-0.5s0.224-0.5,0.5-0.5h10c0.276,0,0.5,0.224,0.5,0.5 S80.777,27,80.5,27z"/><path fill="#fff" d="M68.5,27h-1c-0.276,0-0.5-0.224-0.5-0.5s0.224-0.5,0.5-0.5h1c0.276,0,0.5,0.224,0.5,0.5 S68.776,27,68.5,27z"/><path fill="#fff" d="M65.375,27H63.5c-0.276,0-0.5-0.224-0.5-0.5s0.224-0.5,0.5-0.5h1.875c0.276,0,0.5,0.224,0.5,0.5 S65.651,27,65.375,27z"/><path fill="#fff" d="M74.5,23h-5c-0.276,0-0.5-0.224-0.5-0.5s0.224-0.5,0.5-0.5h5c0.276,0,0.5,0.224,0.5,0.5 S74.777,23,74.5,23z"/><path fill="#fff" d="M71.5,29h-2c-0.276,0-0.5-0.224-0.5-0.5s0.224-0.5,0.5-0.5h2c0.276,0,0.5,0.224,0.5,0.5 S71.776,29,71.5,29z"/></g><g><path fill="#472b29" d="M75.5,37.75H70c-0.138,0-0.25-0.112-0.25-0.25s0.112-0.25,0.25-0.25h5.5 c0.138,0,0.25,0.112,0.25,0.25S75.638,37.75,75.5,37.75z"/></g><g><path fill="#472b29" d="M75.5,68.75H70c-0.138,0-0.25-0.112-0.25-0.25s0.112-0.25,0.25-0.25h5.5 c0.138,0,0.25,0.112,0.25,0.25S75.638,68.75,75.5,68.75z"/></g><g><path fill="#472b29" d="M52,68.75H26.5c-0.138,0-0.25-0.112-0.25-0.25s0.112-0.25,0.25-0.25H52 c0.138,0,0.25,0.112,0.25,0.25S52.138,68.75,52,68.75z"/></g><g><path fill="#472b29" d="M46.5,37.75H35c-0.138,0-0.25-0.112-0.25-0.25s0.112-0.25,0.25-0.25h11.5 c0.138,0,0.25,0.112,0.25,0.25S46.638,37.75,46.5,37.75z"/></g><g><path fill="#472b29" d="M33,37.75h-6.5c-0.138,0-0.25-0.112-0.25-0.25s0.112-0.25,0.25-0.25H33 c0.138,0,0.25,0.112,0.25,0.25S33.138,37.75,33,37.75z"/></g><g><path fill="#472b29" d="M26.5,68.75c-0.138,0-0.25-0.112-0.25-0.25V56c0-0.138,0.112-0.25,0.25-0.25s0.25,0.112,0.25,0.25 v12.5C26.75,68.638,26.639,68.75,26.5,68.75z"/></g><g><path fill="#472b29" d="M75.502,68.75c-0.138,0-0.25-0.112-0.25-0.25V62c0-0.138,0.112-0.25,0.25-0.25s0.25,0.112,0.25,0.25 v6.5C75.752,68.638,75.64,68.75,75.502,68.75z"/></g><g><path fill="#472b29" d="M75.5,44.25c-0.138,0-0.25-0.112-0.25-0.25v-6.5c0-0.138,0.112-0.25,0.25-0.25s0.25,0.112,0.25,0.25 V44C75.75,44.138,75.638,44.25,75.5,44.25z"/></g><g><path fill="#472b29" d="M75.5,56.75c-0.138,0-0.25-0.112-0.25-0.25V46c0-0.138,0.112-0.25,0.25-0.25s0.25,0.112,0.25,0.25 v10.5C75.75,56.638,75.638,56.75,75.5,56.75z"/></g><g><path fill="#472b29" d="M75.75,35.4c1.02,0,1.85,0.83,1.85,1.85v31.5c0,1.02-0.83,1.85-1.85,1.85h-49.5 c-1.02,0-1.85-0.83-1.85-1.85v-31.5c0-1.02,0.83-1.85,1.85-1.85H75.75 M75.75,34h-49.5C24.455,34,23,35.455,23,37.25v31.5 c0,1.795,1.455,3.25,3.25,3.25h49.5c1.795,0,3.25-1.455,3.25-3.25v-31.5C79,35.455,77.545,34,75.75,34L75.75,34z"/></g><g><line x1="26.502" x2="26.501" y1="50" y2="54" fill="#cbc9bc"/><path fill="#472b29" d="M26.501,54.25L26.501,54.25c-0.138,0-0.25-0.112-0.25-0.25l0.001-4c0-0.138,0.112-0.25,0.25-0.25 l0,0c0.138,0,0.25,0.112,0.25,0.25l-0.001,4C26.751,54.138,26.639,54.25,26.501,54.25z"/></g><g><line x1="26.499" x2="26.498" y1="37.5" y2="45" fill="#cbc9bc"/><path fill="#472b29" d="M26.498,45.25L26.498,45.25c-0.138,0-0.25-0.112-0.25-0.25l0.001-7.5c0-0.138,0.112-0.25,0.25-0.25 l0,0c0.138,0,0.25,0.112,0.25,0.25L26.748,45C26.748,45.138,26.636,45.25,26.498,45.25z"/></g><g><path fill="#472b29" d="M68,37.75H49.5c-0.138,0-0.25-0.112-0.25-0.25s0.112-0.25,0.25-0.25H68 c0.138,0,0.25,0.112,0.25,0.25S68.138,37.75,68,37.75z"/></g><g><path fill="#472b29" d="M68,68.75H55c-0.138,0-0.25-0.112-0.25-0.25s0.112-0.25,0.25-0.25h13c0.138,0,0.25,0.112,0.25,0.25 S68.138,68.75,68,68.75z"/></g><g><path fill="#fdfcef" d="M86.375,64.5c0,0,1.567,0,3.5,0s3.5-1.567,3.5-3.5c0-1.781-1.335-3.234-3.055-3.455 c0.028-0.179,0.055-0.358,0.055-0.545c0-1.933-1.567-3.5-3.5-3.5c-1.032,0-1.95,0.455-2.59,1.165 c-0.384-1.808-1.987-3.165-3.91-3.165c-2.209,0-4,1.791-4,4c0,0.191,0.03,0.374,0.056,0.558c-0.428-0.344-0.965-0.558-1.556-0.558 c-1.228,0-2.245,0.887-2.455,2.055c-0.179-0.028-0.358-0.055-0.545-0.055c-1.933,0-3.5,1.567-3.5,3.5s1.567,3.5,3.5,3.5 s7.5,0,7.5,0V65h7V64.5z"/><path fill="#472b29" d="M88.125,60c-0.138,0-0.25-0.112-0.25-0.25c0-1.223,0.995-2.218,2.218-2.218 c0.034,0.009,0.737-0.001,1.244,0.136c0.133,0.036,0.212,0.173,0.176,0.306c-0.036,0.134-0.173,0.213-0.306,0.176 c-0.444-0.12-1.1-0.12-1.113-0.118c-0.948,0-1.719,0.771-1.719,1.718C88.375,59.888,88.263,60,88.125,60z"/><circle cx="81.375" cy="64.5" r=".5" fill="#472b29"/><path fill="#472b29" d="M89.875,65h-3.5c-0.276,0-0.5-0.224-0.5-0.5s0.224-0.5,0.5-0.5h3.5c1.654,0,3-1.346,3-3 c0-1.496-1.125-2.768-2.618-2.959c-0.134-0.018-0.255-0.088-0.336-0.196s-0.115-0.244-0.094-0.377 c0.024-0.153,0.049-0.308,0.049-0.468c0-1.654-1.346-3-3-3c-0.85,0-1.638,0.355-2.219,1c-0.125,0.139-0.321,0.198-0.5,0.148 c-0.182-0.049-0.321-0.195-0.36-0.379C83.455,53.165,82.016,52,80.375,52c-1.93,0-3.5,1.57-3.5,3.5 c0,0.143,0.021,0.28,0.041,0.418c0.029,0.203-0.063,0.438-0.242,0.54c-0.179,0.102-0.396,0.118-0.556-0.01 C75.753,56.155,75.324,56,74.875,56c-0.966,0-1.792,0.691-1.963,1.644c-0.048,0.267-0.296,0.446-0.569,0.405 C72.189,58.025,72.035,58,71.875,58c-1.654,0-3,1.346-3,3s1.346,3,3,3h7.5c0.276,0,0.5,0.224,0.5,0.5s-0.224,0.5-0.5,0.5h-7.5 c-2.206,0-4-1.794-4-4s1.794-4,4-4c0.059,0,0.116,0.002,0.174,0.006C72.463,55.82,73.586,55,74.875,55 c0.349,0,0.689,0.061,1.011,0.18c0.165-2.333,2.115-4.18,4.489-4.18c1.831,0,3.466,1.127,4.153,2.774 C85.208,53.276,86.03,53,86.875,53c2.206,0,4,1.794,4,4c0,0.048-0.001,0.095-0.004,0.142c1.743,0.448,3.004,2.027,3.004,3.858 C93.875,63.206,92.081,65,89.875,65z"/><path fill="#472b29" d="M84.375,64c-0.159,0-0.841,0-1,0c-0.276,0-0.5,0.224-0.5,0.5c0,0.276,0.224,0.5,0.5,0.5 c0.159,0,0.841,0,1,0c0.276,0,0.5-0.224,0.5-0.5C84.875,64.224,84.651,64,84.375,64z"/></g></svg>