<?xml version="1.0" encoding="UTF-8"?>
<svg id="Calque_2" data-name="Calque 2" xmlns="http://www.w3.org/2000/svg" viewBox="0 0 100.07 121.62">
  <defs>
    <style>
      .cls-1 {
        fill: #fff;
      }
    </style>
  </defs>
  <g id="Calque_1-2" data-name="Calque 1">
    <path class="cls-1" d="M12.14,0c6.56,.12,11.69,5.75,11.69,12.31V92.39c0,2.97,2.41,5.38,5.38,5.38h46.8c6.56,0,12.19,5.13,12.31,11.69s-5.26,12.15-11.92,12.15H11.92c-6.58,0-11.92-5.34-11.92-11.92V11.92C0,5.26,5.46-.12,12.14,0Z"/>
    <g>
      <path class="cls-1" d="M33.82,92.52h22.25c-2.24-2.22-3.74-5.52-3.74-9.88V37.61c0-14.81,17.14-17.34,22.69-7.26,3.13,5.68,9.8,7.94,15.57,4.96,5.77-3.33,7.76-10.72,4.43-16.5C79.06-10.6,29.2-3.35,29.2,39.65v48.25c0,2.55,2.07,4.62,4.62,4.62Z"/>
      <path class="cls-1" d="M88.04,48.6h-11.57c-6.39,0-11.58,5.18-11.58,11.57s5.19,11.57,11.58,11.57v10.58c0,4.02-1.38,7.68-3.82,10.2h8.59c6.58,0,11.92,5.34,11.92,11.92,0,.26-.01,.53-.03,.79,7.26-14.94,7.25-28.96,6.76-35.96-.03-.94-.28-9.08-.28-9.08-.09-6.26-4.89-11.5-11.57-11.57Z"/>
    </g>
  </g>
</svg>