<?xml version="1.0" encoding="UTF-8"?>
<svg id="Calque_2" data-name="Calque 2" xmlns="http://www.w3.org/2000/svg" viewBox="0 0 189.93 135.66">
  <defs>
    <style>
      .cls-1 {
        fill: #fff;
      }
    </style>
  </defs>
  <g id="Calque_1-2" data-name="Calque 1">
    <g>
      <g>
        <g>
          <path class="cls-1" d="M83.86,89.8h14.35c-1.45-1.43-2.41-3.56-2.41-6.38v-29.04c0-9.55,11.06-11.19,14.64-4.68,2.02,3.66,6.32,5.12,10.04,3.2,3.72-2.15,5.01-6.92,2.86-10.64-10.3-18.98-42.46-14.3-42.46,13.44v31.12c0,1.65,1.33,2.98,2.98,2.98Z"/>
          <path class="cls-1" d="M118.84,61.47h-7.46c-4.12,0-7.47,3.34-7.47,7.46s3.35,7.46,7.47,7.46v6.83c0,2.59-.89,4.96-2.47,6.58h5.54c4.25,0,7.69,3.45,7.69,7.69,0,.17,0,.34-.02,.51,4.68-9.64,4.68-18.68,4.36-23.2-.02-.6-.18-5.86-.18-5.86-.06-4.04-3.16-7.42-7.46-7.46Z"/>
        </g>
        <path class="cls-1" d="M71.16,28.61c4.23,.08,7.54,3.71,7.54,7.94v51.66c0,1.92,1.55,3.47,3.47,3.47h30.19c4.23,0,7.86,3.31,7.94,7.54,.08,4.31-3.39,7.84-7.69,7.84h-41.6c-4.25,0-7.69-3.44-7.69-7.69V36.29c0-4.29,3.52-7.77,7.83-7.69Z"/>
      </g>
      <path class="cls-1" d="M170.37,0H19.56C8.77,0,0,8.78,0,19.56V116.1c0,10.78,8.77,19.56,19.56,19.56H170.37c10.79,0,19.56-8.78,19.56-19.56V19.56c0-10.78-8.77-19.56-19.56-19.56Zm5.99,94.96h-20.35v-20.35h20.35v20.35ZM13.57,74.61h20.35v20.35H13.57v-20.35Zm0-33.92h20.35v20.35H13.57v-20.35ZM47.48,13.57h94.96V122.1H47.48V13.57Zm108.53,47.48v-20.35h20.35v20.35h-20.35Zm20.35-41.49v7.57h-20.35V13.57h14.35c3.31,0,5.99,2.69,5.99,5.99Zm-162.79,0c0-3.31,2.69-5.99,5.99-5.99h14.35v13.57H13.57v-7.57Zm0,96.54v-7.57h20.35v13.57h-14.35c-3.31,0-5.99-2.69-5.99-5.99Zm162.79,0c0,3.31-2.69,5.99-5.99,5.99h-14.35v-13.57h20.35v7.57Z"/>
    </g>
  </g>
</svg>